# Blender 5.0.1
# www.blender.org
mtllib paperfold.mtl
o Map18
v -1.297388 1.312828 -7.821278
v -2.163415 0.866242 -7.821187
v 7.232573 -2.124348 -7.821049
v 6.546805 -1.494694 -7.821263
v 6.200202 -1.907353 -7.821171
v -1.014574 -0.854034 -7.821751
v 0.022009 -0.614836 -7.821919
v 1.057944 -0.846096 -7.821805
v -7.231050 -2.016919 -7.820614
v -6.184595 -1.839108 -7.820809
v -6.379472 -1.536392 -7.820714
v -1.294099 1.302918 7.864620
v -2.174341 0.868797 7.864528
v -6.388132 -1.531161 7.864086
v -7.229784 -2.019441 7.863994
v -6.189462 -1.828264 7.863994
v -1.022691 -0.842662 7.863971
v 0.021353 -0.610137 7.863979
v 1.058829 -0.858029 7.863903
v 6.197585 -1.919727 7.863613
v 7.232481 -2.126226 7.863559
v 6.532309 -1.503541 7.863529
v 3.038878 1.581838 -7.822377
v 2.737074 1.286031 7.826335
v -4.359727 -0.255229 7.864322
v -1.305757 1.334817 -10.513783
v 7.233954 -2.125671 -10.514089
v 6.590285 -1.468155 -10.514222
v 0.025084 -0.636685 -10.514455
v -7.233949 -2.016352 -10.513661
v -1.293993 1.302474 10.515094
v -2.174837 0.868032 10.514987
v -6.388155 -1.531650 10.514354
v -7.229722 -2.019848 10.514224
v -6.189493 -1.828705 10.514255
v -1.023340 -0.843214 10.514415
v 0.021414 -0.610600 10.514461
v 1.059615 -0.858592 10.514354
v 6.197775 -1.920167 10.513873
v 7.232543 -2.126641 10.513789
v 6.532301 -1.503539 10.513789
v 2.536940 0.836479 10.391101
v 4.785864 0.051218 -7.821812
v 4.604826 -0.060280 7.863430
v -2.139284 0.846177 -10.513780
v -4.272317 -0.332486 -7.820950
v -6.354021 -1.559930 -10.513677
v -1.394411 1.282215 -7.821278
v -1.294366 1.304279 0.028667
v -1.398691 1.278789 7.864604
v -2.172822 0.870991 0.028713
v 3.088400 1.612314 -10.514970
v 2.451872 2.096139 -7.822556
v 7.175612 -2.054857 -7.821068
v 7.232283 -2.124997 0.028400
v 7.167326 -2.059908 7.863559
v 6.532301 -1.503539 0.028247
v 7.126692 -2.101619 -7.821049
v 6.197043 -1.918427 0.028346
v 7.124968 -2.109663 7.863575
v 6.211134 -1.877591 -10.514131
v 1.068236 -0.819661 -10.514398
v 3.629485 -1.379345 -7.821492
v -1.000993 -0.897367 -10.514371
v -6.170915 -1.878974 -10.513780
v -3.598962 -1.352506 -7.821286
v 0.128951 -0.636098 -7.821919
v 0.021155 -0.608769 0.028034
v 0.130103 -0.640108 7.863971
v 1.056540 -0.856371 0.028064
v -0.083383 -0.647813 -7.821919
v -1.020799 -0.841032 0.028133
v -0.088167 -0.638492 7.863979
v -7.119592 -2.009686 -7.820630
v -7.229990 -2.018208 0.028827
v -7.121843 -2.004464 7.863994
v -6.189302 -1.826969 0.028713
v -7.143266 -1.967921 -7.820614
v -6.388032 -1.529775 0.028812
v -7.147707 -1.965819 7.864002
v 3.022368 1.571679 0.027515
v 2.354125 0.799620 7.582851
v -3.660379 -1.187435 7.864025
v 3.594946 -1.481062 7.863735
v -4.242898 -0.359279 -10.513730
v -1.397768 1.280662 0.028667
v 2.501372 2.126641 -10.515096
v 7.167326 -2.059908 0.028384
v 7.124777 -2.108434 0.028400
v 3.641646 -1.345321 -10.514264
v -3.583322 -1.398139 -10.514085
v 0.128485 -0.638590 0.028034
v -0.086969 -0.637005 0.028034
v -7.122041 -2.003243 0.028819
v -7.147874 -1.964587 0.028827
v 2.435370 2.085972 0.027385
v -3.659173 -1.185944 0.028476
v 3.593359 -1.479549 0.028186
v -4.358781 -0.253363 0.028781
v -1.386842 1.281870 -10.513806
v 7.132971 -2.084445 -10.514089
v 7.200484 -2.039707 -10.514096
v 0.134566 -0.632638 -10.514447
v -0.075815 -0.684238 -10.514455
v -7.128755 -1.981217 -10.513669
v -7.111810 -2.032281 -10.513677
v -1.399027 1.278147 10.515086
v -4.360025 -0.255872 10.514682
v -7.147630 -1.966228 10.514232
v -7.121774 -2.004879 10.514224
v -3.660783 -1.187951 10.514384
v -0.088579 -0.639003 10.514461
v 0.130614 -0.640618 10.514445
v 3.595480 -1.481579 10.514094
v 7.125029 -2.110078 10.513804
v 7.167326 -2.059908 10.513789
v 2.439330 0.203069 10.094096
v 4.835494 0.081617 -10.514592
v 4.604826 -0.060281 0.027881
v 4.604826 -0.060282 10.513789
v 4.087348 0.473381 10.513789
v 3.658698 0.915444 7.863384
v 3.022360 1.571677 3.928920
v 2.452445 2.079500 0.564998
v 3.756804 0.690465 10.503871
v 3.389868 1.088517 7.856952
v 2.974425 1.539201 4.860034
v 2.430449 2.064604 0.992107
v 3.043082 0.959229 10.476665
v 2.323012 1.965490 2.330592
v 2.413725 1.186401 7.764240
v 2.220503 1.735199 3.644450
v 3.011626 1.223016 7.843708
vn 0.4937 -0.8695 0.0108
vn 0.4795 -0.8775 0.0070
vn 0.4951 -0.8688 0.0091
vn 0.4954 -0.8686 0.0128
vn 0.5047 -0.8632 0.0076
vn 0.4924 -0.8703 0.0122
vn 0.4585 -0.8887 0.0016
vn 0.4463 -0.8949 0.0001
vn 0.4673 -0.8841 0.0028
vn 0.3021 -0.9533 -0.0014
vn 0.2425 -0.9702 -0.0004
vn 0.2241 -0.9746 -0.0002
vn 0.4423 -0.8969 -0.0002
vn 0.4600 -0.8879 -0.0002
vn -0.6590 -0.7521 -0.0070
vn -0.6589 -0.7520 -0.0206
vn -0.6588 -0.7520 -0.0206
vn -0.6755 -0.7372 -0.0137
vn -0.6449 -0.7641 -0.0125
vn -0.6767 -0.7363 -0.0046
vn -0.6672 -0.7449 -0.0008
vn -0.6267 -0.7792 -0.0053
vn -0.6941 0.7198 -0.0006
vn -0.7392 0.6735 -0.0001
vn -0.7583 0.6519 -0.0000
vn -0.6643 -0.7474 -0.0000
vn -0.6152 -0.7884 -0.0000
vn 0.2058 0.9786 0.0030
vn 0.1982 0.9802 0.0005
vn 0.1929 0.9812 0.0073
vn 0.1821 0.9833 0.0030
vn 0.1753 0.9845 0.0002
vn 0.1957 0.9807 0.0001
vn 0.2047 0.9788 0.0116
vn 0.2018 0.9794 0.0122
vn 0.2021 0.9793 0.0087
vn 0.2034 0.9790 0.0103
vn 0.2171 0.9761 0.0068
vn -0.1802 0.9836 -0.0111
vn -0.1980 0.9801 -0.0167
vn -0.1868 0.9822 -0.0169
vn -0.1871 0.9823 -0.0133
vn -0.1802 0.9835 -0.0154
vn -0.1998 0.9798 -0.0107
vn 0.2176 0.9760 0.0018
vn 0.2289 0.9735 0.0004
vn 0.2288 0.9735 0.0029
vn -0.0555 0.9985 -0.0024
vn -0.0080 1.0000 -0.0003
vn 0.0073 1.0000 0.0002
vn 0.2325 0.9726 0.0001
vn 0.2359 0.9718 0.0001
vn -0.2249 0.9744 -0.0050
vn -0.2194 0.9756 -0.0006
vn -0.1630 0.9866 -0.0045
vn -0.1519 0.9884 0.0002
vn -0.2174 0.9761 0.0002
vn -0.1673 0.9859 -0.0037
vn -0.1774 0.9841 -0.0005
vn -0.2181 0.9759 -0.0045
vn 0.8706 0.4920 -0.0011
vn 0.8417 0.5400 -0.0001
vn 0.8312 0.5559 0.0001
vn -0.1807 0.9835 0.0002
vn -0.2297 0.9733 0.0002
vn 0.4913 -0.8710 0.0029
vn 0.4992 -0.8665 0.0002
vn 0.5160 -0.8566 0.0029
vn 0.5230 -0.8524 -0.0001
vn 0.5018 -0.8650 -0.0001
vn -0.6948 -0.7192 -0.0064
vn -0.6602 -0.7511 -0.0015
vn -0.7093 -0.7049 -0.0021
vn -0.6596 -0.7516 -0.0001
vn -0.1874 0.9823 -0.0059
vn -0.1874 0.9823 0.0002
vn 0.2024 0.9793 0.0038
vn 0.2025 0.9793 0.0001
vn 0.4953 -0.8687 0.0038
vn 0.4948 -0.8690 -0.0002
vn 0.4821 -0.8761 0.0052
vn 0.4247 -0.9053 -0.0037
vn 0.2207 0.9753 0.0086
vn -0.6180 0.7862 -0.0020
vn -0.6956 -0.7183 -0.0135
vn -0.6644 -0.7472 -0.0180
vn 0.1954 0.9807 0.0051
vn -0.1483 0.9889 -0.0073
vn -0.2355 0.9718 -0.0149
vn 0.4759 -0.8794 0.0089
vn 0.9162 0.4007 -0.0031
vn -0.1478 0.9890 -0.0113
vn 0.2252 -0.9743 -0.0002
vn 0.5230 -0.8523 -0.0001
vn 0.4950 -0.8689 -0.0002
vn 0.8311 0.5561 0.0001
vn 0.0078 1.0000 0.0002
vn 0.2324 0.9726 0.0001
vn 0.2358 0.9718 0.0001
vn -0.7629 0.6465 -0.0000
vn -0.6646 -0.7472 -0.0000
vn 0.7096 -0.6936 -0.1236
vn 0.8206 -0.5602 -0.1131
vn -0.0054 -0.9925 -0.1219
vn -0.6598 -0.7512 -0.0200
vn -0.6592 -0.7518 -0.0156
vn -0.7045 -0.7097 -0.0044
vn -0.6576 -0.7534 -0.0072
vn -0.6520 -0.7583 -0.0000
vn -0.6861 -0.7274 -0.0103
vn -0.6371 -0.7708 -0.0000
vn -0.4353 -0.8973 -0.0739
vn -0.4320 -0.8988 -0.0749
vn -0.3288 -0.9404 -0.0869
vn -0.4133 -0.9082 -0.0657
vn -0.1870 -0.9763 -0.1089
vn -0.2141 -0.9712 -0.1047
vn 0.9904 -0.1231 -0.0629
vn 0.3348 -0.9319 -0.1398
vn -0.2268 -0.9687 -0.1006
vt 0.000007 0.035838
vt 0.128050 0.035863
vt 0.128075 0.125038
vt 0.000024 0.125021
vt 0.128102 0.214216
vt 0.000042 0.214211
vt 0.128040 0.003686
vt 0.501333 0.003735
vt 0.501339 0.035936
vt 0.128040 0.000006
vt 0.501333 0.000008
vt 0.873960 0.000009
vt 0.873960 0.003783
vt 0.873962 0.036008
vt 0.128041 1.000000
vt 0.000001 1.000000
vt 0.000007 0.969478
vt 0.128050 0.969480
vt 0.128102 0.786983
vt 0.128112 0.753969
vt 0.501381 0.753970
vt 0.501375 0.786986
vt 0.128112 0.750277
vt 0.501382 0.750277
vt 0.873972 0.750276
vt 0.873972 0.753969
vt 0.873971 0.786986
vt 0.128112 0.746583
vt 0.501381 0.746583
vt 0.128102 0.714394
vt 0.501375 0.714406
vt 0.873971 0.714418
vt 0.873972 0.746582
vt 0.000042 0.714390
vt 0.000024 0.625199
vt 0.128075 0.625215
vt 0.000006 0.536016
vt 0.128049 0.536041
vt 0.128049 0.464319
vt 0.000006 0.464306
vt 0.000024 0.375134
vt 0.128075 0.375148
vt 0.000042 0.285964
vt 0.128102 0.285975
vt 0.128040 0.503864
vt 0.501333 0.503913
vt 0.501339 0.536114
vt 0.128039 0.500184
vt 0.501333 0.500186
vt 0.873960 0.500186
vt 0.873960 0.503961
vt 0.873962 0.536186
vt 0.128039 0.496500
vt 0.501333 0.496460
vt 0.501339 0.464259
vt 0.873962 0.464187
vt 0.873960 0.496412
vt 0.128112 0.253790
vt 0.501381 0.253792
vt 0.501375 0.285968
vt 0.128112 0.250098
vt 0.501382 0.250098
vt 0.873972 0.250098
vt 0.873972 0.253792
vt 0.873971 0.285956
vt 0.128112 0.246405
vt 0.501381 0.246404
vt 0.501375 0.214228
vt 0.873971 0.214240
vt 0.873972 0.246404
vt 0.501340 0.969480
vt 0.501334 1.000000
vt 0.686865 0.969480
vt 0.527144 1.000000
vt 0.501357 0.375110
vt 0.873966 0.375061
vt 0.501357 0.625264
vt 0.873966 0.625312
vt 0.501357 0.125086
vt 0.873966 0.125134
vt 0.000001 0.003670
vt 0.000001 0.000000
vt 0.000048 0.746583
vt 0.000049 0.750275
vt 0.000048 0.753962
vt 0.000042 0.786974
vt -0.000000 0.503848
vt -0.000000 0.500178
vt -0.000000 0.496492
vt 0.000048 0.246405
vt 0.000049 0.250096
vt 0.000048 0.253784
vt 1.000000 0.003800
vt 1.000000 0.036033
vt 1.000000 0.000009
vt 1.000000 0.214244
vt 1.000000 0.125151
vt 1.000000 0.246404
vt 1.000000 0.250098
vt 1.000000 0.253791
vt 1.000000 0.285952
vt 1.000000 0.464163
vt 1.000000 0.375045
vt 1.000000 0.496396
vt 1.000000 0.500187
vt 1.000000 0.503978
vt 1.000000 0.536211
vt 1.000000 0.714422
vt 1.000000 0.625328
vt 1.000000 0.746582
vt 1.000000 0.750275
vt 1.000000 0.753969
vt 1.000000 0.786986
vt 1.000000 0.969480
vt 0.873961 0.981363
vt 0.873962 0.969480
vt 0.000024 0.878641
vt 0.128076 0.878647
vt 0.873963 0.932956
vt 0.501357 0.878649
vt 0.873966 0.878649
vt 1.000000 0.908351
vt 1.000000 0.878649
vt 1.000000 0.923956
vt 0.873963 0.945307
vt 0.731260 0.969480
vt 0.547507 1.000000
vt 1.000000 0.951517
vt 0.873962 0.959370
vt 0.873960 1.000000
vt 1.000000 1.000000
vt 0.676291 1.000000
vt 0.611725 1.000000
s 1
usemtl Paper_MTL18
f 45/1/1 2/2/2 46/3/3 85/4/4
f 85/4/4 46/3/3 11/5/5 47/6/6
f 2/2/2 48/7/7 86/8/8 51/9/9
f 48/7/7 1/10/10 49/11/11 86/8/8
f 86/8/8 49/11/11 12/12/12 50/13/13
f 51/9/9 86/8/8 50/13/13 13/14/14
f 53/15/15 87/16/16 52/17/17 23/18/18
f 4/19/19 54/20/20 88/21/21 57/22/22
f 54/20/20 3/23/23 55/24/24 88/21/21
f 88/21/21 55/24/24 21/25/25 56/26/26
f 57/22/22 88/21/21 56/26/26 22/27/27
f 3/23/23 58/28/28 89/29/29 55/24/24
f 58/28/28 5/30/30 59/31/31 89/29/29
f 89/29/29 59/31/31 20/32/32 60/33/33
f 55/24/24 89/29/29 60/33/33 21/25/25
f 5/30/30 61/34/34 90/35/35 63/36/36
f 63/36/36 90/35/35 62/37/37 8/38/38
f 6/39/39 64/40/40 91/41/41 66/42/42
f 66/42/42 91/41/41 65/43/43 10/44/44
f 8/38/38 67/45/45 92/46/46 70/47/47
f 67/45/45 7/48/48 68/49/49 92/46/46
f 92/46/46 68/49/49 18/50/50 69/51/51
f 70/47/47 92/46/46 69/51/51 19/52/52
f 7/48/48 71/53/53 93/54/54 68/49/49
f 71/53/53 6/39/39 72/55/55 93/54/54
f 93/54/54 72/55/55 17/56/56 73/57/57
f 68/49/49 93/54/54 73/57/57 18/50/50
f 10/44/44 74/58/58 94/59/59 77/60/60
f 74/58/58 9/61/61 75/62/62 94/59/59
f 94/59/59 75/62/62 15/63/63 76/64/64
f 77/60/60 94/59/59 76/64/64 16/65/65
f 9/61/61 78/66/66 95/67/67 75/62/62
f 78/66/66 11/5/5 79/68/68 95/67/67
f 95/67/67 79/68/68 14/69/69 80/70/70
f 75/62/62 95/67/67 80/70/70 15/63/63
f 53/15/15 23/18/18 81/71/71 96/72/72
f 96/72/72 81/71/71 123/73/73 124/74/74
f 17/56/56 72/55/55 97/75/75 83/76/76
f 72/55/55 6/39/39 66/42/42 97/75/75
f 97/75/75 66/42/42 10/44/44 77/60/60
f 83/76/76 97/75/75 77/60/60 16/65/65
f 20/32/32 59/31/31 98/77/77 84/78/78
f 59/31/31 5/30/30 63/36/36 98/77/77
f 98/77/77 63/36/36 8/38/38 70/47/47
f 84/78/78 98/77/77 70/47/47 19/52/52
f 14/69/69 79/68/68 99/79/79 25/80/80
f 79/68/68 11/5/5 46/3/3 99/79/79
f 99/79/79 46/3/3 2/2/2 51/9/9
f 25/80/80 99/79/79 51/9/9 13/14/14
f 1/10/10 48/7/7 100/81/81 26/82/82
f 48/7/7 2/2/2 45/1/1 100/81/81
f 61/34/34 5/30/30 58/28/28 101/83/83
f 101/83/83 58/28/28 3/23/23 27/84/84
f 3/23/23 54/20/20 102/85/85 27/84/84
f 54/20/20 4/19/19 28/86/86 102/85/85
f 7/48/48 67/45/45 103/87/87 29/88/88
f 67/45/45 8/38/38 62/37/37 103/87/87
f 64/40/40 6/39/39 71/53/53 104/89/89
f 104/89/89 71/53/53 7/48/48 29/88/88
f 47/6/6 11/5/5 78/66/66 105/90/90
f 105/90/90 78/66/66 9/61/61 30/91/91
f 9/61/61 74/58/58 106/92/92 30/91/91
f 74/58/58 10/44/44 65/43/43 106/92/92
f 13/14/14 50/13/13 107/93/13 32/94/14
f 50/13/13 12/12/12 31/95/93 107/93/13
f 33/96/94 14/69/69 25/80/80 108/97/95
f 108/97/95 25/80/80 13/14/14 32/94/14
f 15/63/63 80/70/70 109/98/70 34/99/96
f 80/70/70 14/69/69 33/96/94 109/98/70
f 16/65/65 76/64/64 110/100/64 35/101/65
f 76/64/64 15/63/63 34/99/96 110/100/64
f 36/102/56 17/56/56 83/76/76 111/103/76
f 111/103/76 83/76/76 16/65/65 35/101/65
f 18/50/50 73/57/57 112/104/57 37/105/97
f 73/57/57 17/56/56 36/102/56 112/104/57
f 19/52/52 69/51/51 113/106/98 38/107/99
f 69/51/51 18/50/50 37/105/97 113/106/98
f 39/108/32 20/32/32 84/78/78 114/109/78
f 114/109/78 84/78/78 19/52/52 38/107/99
f 21/25/25 60/33/33 115/110/33 40/111/100
f 60/33/33 20/32/32 39/108/32 115/110/33
f 22/27/27 56/26/26 116/112/101 41/113/27
f 56/26/26 21/25/25 40/111/100 116/112/101
f 42/114/102 131/115/103 24/116/104
f 23/18/18 52/17/17 118/117/105 43/118/106
f 43/118/106 118/117/105 28/86/86 4/19/19
f 122/119/107 123/73/73 81/71/71 119/120/108 44/121/109
f 81/71/71 23/18/18 43/118/106 119/120/108
f 119/120/108 43/118/106 4/19/19 57/22/22
f 44/121/109 119/120/108 57/22/22 22/27/27
f 121/122/110 122/119/107 44/121/109 120/123/111
f 120/123/111 44/121/109 22/27/27 41/113/27
f 125/124/112 126/125/113 122/119/107 121/122/110
f 126/125/113 127/126/114 123/73/73 122/119/107
f 124/74/74 123/73/73 127/126/114 128/127/115
f 129/128/116 133/129/117 126/125/113 125/124/112
f 133/129/117 127/126/114 126/125/113
f 82/130/118 131/115/103 42/114/102 117/131/118
f 132/132/119 131/115/103 82/130/118
f 130/133/120 24/116/104 131/115/103 132/132/119
f 24/116/104 133/129/117 129/128/116 42/114/102
f 127/126/114 133/129/117 24/116/104 130/133/120 128/127/115
