# Blender 4.5.0
# www.blender.org
mtllib paper.mtl
o Paper_06_GEO
v 1.761777 0.003805 0.142649
v 1.974488 0.002371 0.130764
v 1.763988 0.000609 -0.085918
v 1.972772 0.001920 -0.137416
v 1.739391 0.004743 0.003326
v 1.989602 -0.000022 -0.003326
v 1.903167 0.070532 0.053968
v 1.801025 0.096481 -0.135997
v 1.806388 0.105015 0.003326
v 1.914182 0.044226 0.136706
v 1.906527 0.032046 -0.136706
v 1.907486 0.033571 -0.000000
v 1.863002 0.007906 0.136706
v 1.863190 0.004203 -0.136706
v 1.862911 0.000000 -0.000000
v 1.923333 0.045177 0.064644
v 1.927726 0.053707 0.086064
v 1.779681 0.016957 -0.060934
v 1.761777 0.003805 0.142649
v 1.974488 0.002371 0.130764
v 1.763988 0.000609 -0.085918
v 1.972772 0.001920 -0.137416
v 1.739391 0.004743 0.003326
v 1.989602 -0.000022 -0.003326
v 1.903167 0.070532 0.053968
v 1.801025 0.096481 -0.135997
v 1.806388 0.105015 0.003326
v 1.914182 0.044226 0.136706
v 1.906527 0.032046 -0.136706
v 1.907486 0.033571 -0.000000
v 1.863002 0.007906 0.136706
v 1.863190 0.004203 -0.136706
v 1.862911 0.000000 -0.000000
v 1.923333 0.045177 0.064644
v 1.927726 0.053707 0.086064
v 1.779681 0.016957 -0.060934
vn -0.0115 -0.9995 0.0309
vn -0.0018 -0.9997 0.0254
vn -0.0035 -0.9999 0.0130
vn -0.0099 -0.9999 0.0099
vn 0.4975 0.8662 -0.0468
vn 0.4298 0.9026 -0.0263
vn 0.3939 0.9188 -0.0245
vn 0.4727 0.8806 -0.0338
vn 0.5032 0.8628 -0.0495
vn 0.5573 0.8281 -0.0604
vn -0.0082 -0.9999 -0.0134
vn -0.0101 -0.9997 -0.0221
vn -0.0159 -0.9998 0.0070
vn 0.4665 0.8841 -0.0281
vn 0.5573 0.8281 -0.0603
vn 0.5484 0.8351 -0.0430
vn -0.0054 -1.0000 -0.0009
vn -0.0219 -0.9991 0.0368
vn -0.7985 -0.4848 0.3568
vn -0.2128 -0.9390 -0.2702
vn -0.2457 0.8746 -0.4180
vn 0.0115 0.9995 -0.0309
vn 0.0099 0.9999 -0.0099
vn 0.0035 0.9999 -0.0130
vn 0.0018 0.9997 -0.0254
vn -0.4975 -0.8662 0.0468
vn -0.4727 -0.8806 0.0338
vn -0.3940 -0.9188 0.0245
vn -0.4298 -0.9026 0.0263
vn -0.5032 -0.8628 0.0495
vn -0.5573 -0.8281 0.0603
vn 0.0159 0.9998 -0.0070
vn 0.0101 0.9997 0.0221
vn 0.0082 0.9999 0.0134
vn -0.4665 -0.8841 0.0281
vn -0.5032 -0.8628 0.0494
vn -0.5484 -0.8351 0.0430
vn 0.0054 1.0000 0.0009
vn 0.0219 0.9991 -0.0368
vn 0.7985 0.4848 -0.3568
vn 0.2128 0.9390 0.2702
vn 0.2457 -0.8746 0.4180
vt 0.464637 0.157020
vt 0.461625 0.274598
vt 0.346508 0.294626
vt 0.351110 0.151078
vt 0.118230 0.129907
vt 0.119398 0.004325
vt 0.229813 0.020882
vt 0.230140 0.127231
vt 0.004325 0.146667
vt 0.114740 0.339984
vt 0.238789 0.144802
vt 0.245252 0.018080
vt 0.355851 0.004325
vt 0.009569 0.022808
vt 0.230140 0.326525
vt 0.274691 0.261802
vt 0.464637 0.027254
vt 0.614981 0.898035
vt 0.638108 0.846522
vt 0.638108 0.913292
vt 0.995675 0.004325
vt 0.995675 0.226929
vt 0.951512 0.087572
vt 0.953460 0.031139
vt 0.924555 0.303276
vt 0.957340 0.421272
vt 0.908932 0.421272
s 1
usemtl Paper6x
f 13/1/1 1/2/2 5/3/3 15/4/4
f 12/5/5 6/6/6 4/7/7 11/8/8
f 10/9/9 12/5/5 9/10/10
f 15/4/4 14/11/11 4/12/12 6/13/13
f 2/14/14 6/6/6 12/5/5 10/9/9
f 9/10/15 12/5/5 11/8/8 8/15/16
f 5/3/3 3/16/17 14/11/11 15/4/4
f 2/17/18 13/1/1 15/4/4 6/13/13
f 17/18/19 7/19/19 16/20/19
f 10/21/20 9/22/20 7/23/20 17/24/20
f 14/25/21 3/26/21 18/27/21
f 31/1/22 33/4/23 23/3/24 19/2/25
f 30/5/26 29/8/27 22/7/28 24/6/29
f 28/9/30 27/10/31 30/5/26
f 33/4/23 24/13/32 22/12/33 32/11/34
f 20/14/35 28/9/36 30/5/26 24/6/29
f 27/10/31 26/15/37 29/8/27 30/5/26
f 23/3/24 33/4/23 32/11/34 21/16/38
f 20/17/39 24/13/32 33/4/23 31/1/22
f 35/18/40 34/20/40 25/19/40
f 28/21/41 35/24/41 25/23/41 27/22/41
f 32/25/42 36/27/42 21/26/42
